<?xml version="1.0" encoding="UTF-8"?>
<svg width="119px" height="106px" viewBox="0 0 119 106" version="1.1" xmlns="http://www.w3.org/2000/svg" xmlns:xlink="http://www.w3.org/1999/xlink">
    <!-- Generator: Sketch 50.2 (55047) - http://www.bohemiancoding.com/sketch -->
    <title>Group 2</title>
    <desc>Created with Sketch.</desc>
    <defs></defs>
    <g id="贤集9k9" stroke="none" stroke-width="1" fill="none" fill-rule="evenodd">
        <g id="搜人才-无结果" transform="translate(-541.000000, -429.000000)">
            <g id="Group-2" transform="translate(536.000000, 417.000000)">
                <circle id="Oval" fill="#D8D8D8" cx="64" cy="68.5" r="49"></circle>
                <rect id="Rectangle-3" x="0" y="0" width="128" height="128"></rect>
                <g id="Page-1" transform="translate(2.500000, 11.000000)">
                    <path d="M65.124874,26.6778289 L101.211517,47.7283704 L120.149864,24.5513384 C121.547682,22.8406668 121.294065,20.3207373 119.583394,18.9229184 C119.415953,18.7860997 119.237694,18.6630835 119.050368,18.5550789 L89.8168594,1.70016318 C88.1172509,0.720234333 85.9578064,1.11758115 84.71833,2.63831389 L65.124874,26.6778289 Z" id="Fill-1" fill="#FBFBFB"></path>
                    <polygon id="Fill-2" fill="#E9E9E9" points="21.6086816 76.9160076 57.8722195 97.8625347 101.21157 72.8475924 65.1249271 51.7970509"></polygon>
                    <polygon id="Fill-3" fill="#F0F0F0" points="65.1249271 26.6777935 101.21157 47.728335 101.21157 72.8474686 65.1249271 51.7969271"></polygon>
                    <polygon id="Fill-4" fill="#E1E1E1" points="21.6086816 76.9160606 21.6086816 51.7969271 65.1249271 26.6777935 65.1249271 51.7969271"></polygon>
                    <polygon id="Fill-5" fill="#E6E6E6" points="21.6086816 76.9889238 57.8722195 97.86257 57.8722195 72.7800538 21.6086816 51.7970863"></polygon>
                    <polygon id="Fill-6" fill="#E6E6E6" points="57.8722549 72.7800007 57.8722549 97.862517 101.211605 72.8840152 101.211605 47.7282643"></polygon>
                    <path d="M101.21157,47.728335 L113.439233,45.2353162 C113.980385,45.1249843 114.508517,45.4742329 114.618849,46.0153847 C114.704661,46.4362728 114.512098,46.8649448 114.140461,47.0803427 L77.2368312,68.4693851 C76.4790452,68.9085917 75.6542768,69.2203756 74.7954478,69.3922915 L57.8722195,72.7798946 L101.21157,47.728335 Z" id="Fill-7" fill="#FBFBFB"></path>
                    <path d="M49.2020546,4.97897713 L65.1249271,26.6777935 L21.6086816,51.7969271 L6.20637403,30.807508 C4.89941407,29.0264547 5.28374264,26.5231253 7.06479592,25.2161654 C7.1825849,25.1297303 7.305021,25.0498135 7.43155376,24.9767742 L43.9774699,3.88116412 C45.7441561,2.86136964 47.9952235,3.33437395 49.2020546,4.97897713 Z" id="Fill-8" fill="#FBFBFB"></path>
                    <path d="M38.0995132,71.322185 L57.8722195,72.7799477 L21.6086816,51.7969801 L4.36394,50.4716669 C3.81327907,50.4293469 3.33257302,50.8414386 3.29025297,51.3920995 C3.26083079,51.7749358 3.45320748,52.1408113 3.78527905,52.3335748 L34.6714548,70.2626232 C35.719176,70.8708126 36.891341,71.2331113 38.0995132,71.322185 Z" id="Fill-9" fill="#FBFBFB"></path>
                </g>
            </g>
        </g>
    </g>
</svg>